# xmcd CD database file
#
# Track frame offsets:
#	150
#	11844
#	30044
#	45455
#	62222
#	80221
#	98621
#	113742
#	128805
#	144694
#	163360
#	174829
#
# Disc length: 2585 seconds
#
# Revision: 1
# Processed by: cddbd v1.5.2PL0 Copyright (c) Steve Scherf et al.
# Submitted via: CDex 1.50
#
DISCID=980a170c
DTITLE=Heritage Singers - Forgiven
DYEAR=2008
DGENRE=Country
TTITLE0=Hey
TTITLE1=What God Can Do
TTITLE2=Child Forgiven
TTITLE3=I Need A Miracle
TTITLE4=God Keeps A Candle
TTITLE5=Moment Of Mercy
TTITLE6=Strike Up The Band
TTITLE7=God Will Take Care Of You
TTITLE8=Through The Fire
TTITLE9=When Sparrows Fall
TTITLE10=Grandma's Bible
TTITLE11=I'm Gonna Get Up
EXTD=YEAR: 2008
EXTT0=
EXTT1=
EXTT2=
EXTT3=
EXTT4=
EXTT5=
EXTT6=
EXTT7=
EXTT8=
EXTT9=
EXTT10=
EXTT11=
PLAYORDER=
